<?xml version="1.0" encoding="utf-8"?>
<!-- Generator: Adobe Illustrator 16.0.0, SVG Export Plug-In . SVG Version: 6.00 Build 0)  -->
<!DOCTYPE svg PUBLIC "-//W3C//DTD SVG 1.1//EN" "http://www.w3.org/Graphics/SVG/1.1/DTD/svg11.dtd">
<svg version="1.1" id="Layer_1" xmlns="http://www.w3.org/2000/svg" xmlns:xlink="http://www.w3.org/1999/xlink" x="0px" y="0px"
	 width="612px" height="95.333px" viewBox="0 0 612 95.333" enable-background="new 0 0 612 95.333" xml:space="preserve">
<g>
	<path fill="#333333" d="M22.338,18.774h14.076c5.202,0,11.628,0,15.3,4.896c1.224,1.529,2.142,3.672,2.448,7.956
		c0,7.649-3.06,12.239-10.71,13.464c-2.142,0.307-3.672,0.307-7.65,0.307H22.338V18.774L22.338,18.774z M0,2.25v88.74h22.338V61.92
		h14.994c12.852-0.307,25.398-0.918,33.66-12.852c4.896-7.039,5.202-14.688,5.202-17.748c0-8.875-3.06-15.301-4.896-18.055
		c-1.53-2.142-3.06-3.672-3.978-4.283C60.588,3.168,52.632,2.25,44.064,1.944L0,2.25L0,2.25z"/>
	<path fill="#333333" d="M100.062,61.002c2.142-7.344,4.59-14.688,6.732-22.032c1.53-5.202,2.754-10.403,4.284-15.606l11.628,37.639
		H100.062L100.062,61.002z M123.012,2.25H99.756l-33.048,88.74H90.27l4.284-14.076h33.354l4.284,14.076h23.562L123.012,2.25z"/>
	<path fill="#333333" d="M184.824,2.25l19.278,32.742c4.59,7.955,9.18,16.217,13.464,24.174L216.648,2.25h21.42v88.74h-21.726
		l-16.524-28.15c-2.754-4.283-5.508-8.873-7.956-13.467c-2.754-4.59-4.896-9.482-7.65-14.075l0.612,56.001h-21.42V2.559
		L184.824,2.25L184.824,2.25z"/>
	<path fill="#333333" d="M314.262,2.25v17.441h-22.95v71.299h-22.338V19.692h-23.256V2.25H314.262z"/>
	<path fill="#333333" d="M381.276,48.762c-0.309,7.039-2.145,14.076-7.038,19.584c-5.508,5.812-12.546,6.73-15.301,6.73
		c-5.813,0-11.018-2.143-14.993-6.426c-3.673-3.979-7.347-10.404-7.347-22.645c0-9.486,3.062-20.502,11.937-25.398
		c1.53-0.918,4.896-2.447,9.792-2.447c1.529,0,4.896,0,8.565,1.529c4.896,2.143,7.347,5.203,8.568,6.732
		C378.216,30.096,381.582,37.747,381.276,48.762z M386.784,84.565c11.016-8.875,16.83-23.562,16.83-37.027
		c0-12.239-4.896-26.621-13.464-35.495c-4.593-4.896-14.994-12.24-31.824-12.24c-20.502,0-30.906,11.322-35.496,18.054
		c-7.65,11.322-8.568,24.174-8.568,28.765c0,5.202,0.612,22.032,12.854,34.884c11.319,11.934,26.01,12.852,31.518,12.852
		C373.32,93.745,381.888,88.542,386.784,84.565z"/>
	<path fill="#333333" d="M436.05,2.25l19.278,32.742c4.59,7.955,9.18,16.217,13.464,24.174L467.874,2.25h21.42v88.74h-21.726
		l-16.524-28.15c-2.754-4.283-5.508-8.873-7.956-13.467c-2.754-4.59-4.896-9.482-7.648-14.075l0.61,56.001h-21.42V2.559L436.05,2.25
		L436.05,2.25z"/>
	<path fill="#333333" d="M569.466,2.25v17.136h-43.452v16.218h40.698v16.83h-40.698v21.115h47.433v17.439h-69.771V2.249
		L569.466,2.25L569.466,2.25z"/>
	<path fill="#333333" d="M592.11,15.714v-5.202h3.363c1.227,0,2.757,0,3.366,1.225c0.309,0.306,0.309,0.918,0.309,1.224
		s0,0.918-0.309,1.224c-0.609,1.225-1.527,1.225-3.978,1.225h-2.754L592.11,15.714L592.11,15.714z M604.044,28.567
		c-0.918-1.836-1.53-4.285-1.53-4.896c-0.306-1.529-0.306-3.672-1.527-4.896c-0.309-0.306-0.612-0.611-1.53-0.918
		c0.918-0.306,0.918-0.306,1.53-0.611c0.609-0.307,0.918-0.612,1.224-1.225c0.612-0.611,1.224-1.529,1.224-3.365
		c0-0.612,0-2.143-1.224-3.672c-1.836-2.143-4.896-2.143-7.344-2.143h-7.347v21.42h4.593v-9.18h1.224c1.53,0,2.142,0,2.754,0.611
		c0.918,0.613,1.225,1.225,1.53,3.367c0.306,1.529,0.306,3.365,0.918,4.896c0,0.306,0.306,0.306,0.306,0.612H604.044L604.044,28.567
		z M612,17.856c0-3.672-0.918-7.344-3.366-10.098c-3.366-4.283-8.262-6.732-13.464-6.732c-7.038,0-11.322,3.979-13.158,6.121
		c-1.224,1.529-3.978,5.201-3.978,10.709c0,7.344,4.284,11.629,6.426,13.465c3.06,2.142,6.732,3.365,10.404,3.365
		c2.445,0,8.262-0.611,12.852-5.813C611.694,24.588,612,19.999,612,17.856z M610.47,17.856c0,6.426-3.978,12.24-10.098,14.383
		c-2.448,0.918-4.284,0.918-5.202,0.918c-6.12,0-11.934-3.672-14.382-9.486c-0.612-1.836-1.226-3.672-1.226-5.814
		c0-7.037,4.283-11.016,6.428-12.545c3.672-2.754,7.344-3.061,9.18-3.061c7.038,0,10.71,3.979,12.24,6.12
		C610.164,12.348,610.47,16.327,610.47,17.856z"/>
</g>
</svg>
