<?xml version="1.0" encoding="utf-8"?>
<!-- Generator: Adobe Illustrator 16.0.0, SVG Export Plug-In . SVG Version: 6.00 Build 0)  -->
<!DOCTYPE svg PUBLIC "-//W3C//DTD SVG 1.1//EN" "http://www.w3.org/Graphics/SVG/1.1/DTD/svg11.dtd">
<svg version="1.1" id="Layer_1" xmlns="http://www.w3.org/2000/svg" xmlns:xlink="http://www.w3.org/1999/xlink" x="0px" y="0px"
	 width="612px" height="95.333px" viewBox="0 348.167 612 95.333" enable-background="new 0 348.167 612 95.333"
	 xml:space="preserve">
<g>
	<path fill="#FFFFFF" d="M22.338,367.542h14.076c5.202,0,11.628,0,15.3,4.896c1.224,1.53,2.142,3.672,2.448,7.956
		c0,7.65-3.06,12.24-10.71,13.464c-2.142,0.306-3.672,0.306-7.65,0.306H22.338V367.542L22.338,367.542z M0,351.018v88.74h22.338
		v-29.07h14.994c12.852-0.306,25.398-0.918,33.66-12.852c4.896-7.038,5.202-14.688,5.202-17.748c0-8.874-3.06-15.3-4.896-18.054
		c-1.53-2.142-3.06-3.672-3.978-4.284c-6.732-5.814-14.688-6.732-23.256-7.038L0,351.018L0,351.018z"/>
	<path fill="#FFFFFF" d="M100.062,409.77c2.142-7.344,4.59-14.688,6.732-22.032c1.53-5.202,2.754-10.404,4.284-15.606l11.628,37.638
		H100.062L100.062,409.77z M123.012,351.018H99.756l-33.048,88.74H90.27l4.284-14.076h33.354l4.284,14.076h23.562L123.012,351.018z"
		/>
	<path fill="#FFFFFF" d="M184.824,351.018l19.278,32.742c4.59,7.956,9.18,16.218,13.464,24.174l-0.918-56.916h21.42v88.74h-21.726
		l-16.524-28.15c-2.754-4.284-5.508-8.874-7.956-13.466c-2.754-4.59-4.896-9.484-7.65-14.076l0.612,56h-21.42v-88.74
		L184.824,351.018L184.824,351.018z"/>
	<path fill="#FFFFFF" d="M314.262,351.018v17.442h-22.95v71.298h-22.338V368.46h-23.256v-17.442H314.262z"/>
	<path fill="#FFFFFF" d="M381.276,397.53c-0.308,7.038-2.144,14.076-7.038,19.584c-5.508,5.812-12.546,6.73-15.301,6.73
		c-5.813,0-11.017-2.142-14.993-6.426c-3.673-3.978-7.346-10.404-7.346-22.644c0-9.486,3.062-20.502,11.936-25.398
		c1.53-0.918,4.896-2.448,9.792-2.448c1.529,0,4.896,0,8.566,1.53c4.896,2.142,7.346,5.202,8.568,6.732
		C378.216,378.864,381.582,386.514,381.276,397.53z M386.784,433.332c11.016-8.874,16.83-23.562,16.83-37.026
		c0-12.24-4.896-26.622-13.464-35.496c-4.592-4.896-14.994-12.24-31.824-12.24c-20.502,0-30.906,11.322-35.496,18.054
		c-7.65,11.322-8.568,24.174-8.568,28.764c0,5.202,0.612,22.032,12.854,34.884c11.32,11.934,26.01,12.852,31.518,12.852
		C373.32,442.512,381.888,437.31,386.784,433.332z"/>
	<path fill="#FFFFFF" d="M436.05,351.018l19.278,32.742c4.59,7.956,9.18,16.218,13.464,24.174l-0.918-56.916h21.42v88.74h-21.726
		l-16.524-28.15c-2.754-4.284-5.508-8.874-7.956-13.466c-2.754-4.59-4.896-9.484-7.649-14.076l0.611,56h-21.42v-88.74
		L436.05,351.018L436.05,351.018z"/>
	<path fill="#FFFFFF" d="M569.466,351.018v17.136h-43.452v16.218h40.698v16.83h-40.698v21.114h47.432v17.44h-69.77v-88.74
		L569.466,351.018L569.466,351.018z"/>
	<path fill="#FFFFFF" d="M592.11,364.482v-5.202h3.364c1.226,0,2.756,0,3.366,1.224c0.308,0.306,0.308,0.918,0.308,1.224
		s0,0.918-0.308,1.224c-0.61,1.224-1.528,1.224-3.978,1.224h-2.754L592.11,364.482L592.11,364.482z M604.044,377.334
		c-0.918-1.836-1.53-4.284-1.53-4.896c-0.306-1.53-0.306-3.672-1.528-4.896c-0.308-0.306-0.612-0.612-1.53-0.918
		c0.918-0.306,0.918-0.306,1.53-0.612c0.61-0.306,0.918-0.612,1.224-1.224c0.612-0.612,1.224-1.53,1.224-3.366
		c0-0.612,0-2.142-1.224-3.672c-1.836-2.142-4.896-2.142-7.344-2.142h-7.346v21.42h4.592v-9.18h1.224c1.53,0,2.142,0,2.754,0.612
		c0.918,0.612,1.225,1.224,1.53,3.366c0.306,1.53,0.306,3.366,0.918,4.896c0,0.306,0.306,0.306,0.306,0.612H604.044L604.044,377.334
		z M612,366.624c0-3.672-0.918-7.344-3.366-10.098c-3.366-4.284-8.262-6.732-13.464-6.732c-7.038,0-11.322,3.978-13.158,6.12
		c-1.224,1.53-3.978,5.202-3.978,10.71c0,7.344,4.284,11.628,6.426,13.464c3.06,2.142,6.732,3.366,10.404,3.366
		c2.446,0,8.262-0.612,12.852-5.814C611.694,373.356,612,368.766,612,366.624z M610.47,366.624c0,6.426-3.978,12.24-10.098,14.382
		c-2.448,0.918-4.284,0.918-5.202,0.918c-6.12,0-11.934-3.672-14.382-9.486c-0.612-1.836-1.225-3.672-1.225-5.814
		c0-7.038,4.283-11.016,6.427-12.546c3.672-2.754,7.344-3.06,9.18-3.06c7.038,0,10.71,3.978,12.24,6.12
		C610.164,361.116,610.47,365.094,610.47,366.624z"/>
</g>
</svg>
